<?xml version="1.0" standalone="no"?>
<!DOCTYPE svg PUBLIC "-//W3C//DTD SVG 1.1//EN" "http://www.w3.org/Graphics/SVG/1.1/DTD/svg11.dtd" >
<svg xmlns="http://www.w3.org/2000/svg" xmlns:xlink="http://www.w3.org/1999/xlink" version="1.1">
<metadata>
Created by FontForge 20141024 at Thu Jun 11 08:40:17 2015
 By System Administrator
2005 Hans Reichel published by FSI FontShop International GmbH
</metadata>
<defs>
<font id="DaxOT-BoldItalic" horiz-adv-x="280" >
  <font-face 
    font-family="Dax OT"
    font-weight="700"
    font-style="italic"
    font-stretch="normal"
    units-per-em="1000"
    panose-1="2 11 8 4 3 1 1 2 1 2"
    ascent="785"
    descent="-215"
    x-height="539"
    cap-height="688"
    bbox="-135 -240 899 921"
    underline-thickness="95"
    underline-position="-79"
    unicode-range="U+0020-2122"
  />
<missing-glyph horiz-adv-x="581" 
d="M9 0v688h563v-688h-563zM104 95h373v498h-373v-498z" />
    <glyph glyph-name=".notdef" horiz-adv-x="581" 
d="M9 0v688h563v-688h-563zM104 95h373v498h-373v-498z" />
    <glyph glyph-name=".null" horiz-adv-x="0" 
 />
    <glyph glyph-name="nonmarkingreturn" horiz-adv-x="333" 
 />
    <glyph glyph-name="space" unicode=" " horiz-adv-x="268" 
 />
    <glyph glyph-name="exclam" unicode="!" horiz-adv-x="326" 
d="M341 688l-118 -435h-120l52 435h186zM220 93q0 -41 -31.5 -71.5t-73.5 -30.5q-32 0 -53.5 22.5t-21.5 53.5q0 41 31.5 71t73.5 30q32 0 53.5 -22t21.5 -53z" />
    <glyph glyph-name="quotedbl" unicode="&#x22;" horiz-adv-x="450" 
d="M465 662l-80 -276h-81l26 276q28 36 74 36t61 -36zM267 662l-81 -276h-81l26 276q29 36 75 36t61 -36z" />
    <glyph glyph-name="numbersign" unicode="#" horiz-adv-x="676" 
d="M662 493l-16 -80h-110l-41 -126h99l-15 -80h-111l-68 -207h-99l68 207h-132l-69 -207h-99l68 207h-98l15 80h110l41 126h-99l16 80h110l64 195h99l-64 -195h133l64 195h99l-64 -195h99zM437 413h-132l-42 -126h133z" />
    <glyph glyph-name="dollar" unicode="$" horiz-adv-x="527" 
d="M527 659l-55 -99q-46 27 -106 27q-52 0 -81.5 -25.5t-29.5 -66.5q0 -26 21.5 -47t51.5 -38t60.5 -37.5t52 -56t21.5 -82.5q0 -91 -59.5 -158t-155.5 -83l-24 -126h-86l24 123q-100 5 -165 39l62 111q52 -31 123 -31q52 0 82.5 27.5t30.5 68.5q0 26 -21 47.5t-50.5 38.5
t-59 37.5t-50.5 55.5t-21 81q0 85 57 150t159 80l24 119h86l-23 -116q77 -6 132 -39z" />
    <glyph glyph-name="percent" unicode="%" horiz-adv-x="910" 
d="M851 263q0 -42 -11.5 -87t-34 -88.5t-63.5 -71t-94 -27.5q-61 0 -93.5 42t-32.5 111q0 43 11.5 89t34.5 88.5t64 70t93 27.5q62 0 94 -42.5t32 -111.5zM687 670l-370 -688l-73 37l370 688zM410 545q0 -42 -11.5 -87t-34 -88.5t-63.5 -71t-94 -27.5q-61 0 -93.5 42
t-32.5 111q0 43 11.5 89t34.5 88.5t64 70t93 27.5q62 0 94 -42.5t32 -111.5zM752 285q0 67 -37 67q-30 0 -52 -43q-17 -32 -29 -88t-12 -96q0 -67 36 -67q29 0 51 42q18 33 30.5 89t12.5 96zM311 567q0 67 -36 67q-30 0 -52 -43q-17 -33 -29.5 -89t-12.5 -95q0 -67 36 -67
q29 0 51 42q18 33 30.5 89t12.5 96z" />
    <glyph glyph-name="ampersand" unicode="&#x26;" horiz-adv-x="650" 
d="M658 374l-110 -18l-64 -326q-87 -41 -225 -41q-115 0 -178.5 45t-63.5 125q0 153 190 219v2q-84 35 -84 123q0 82 67 139t182 57q95 0 165 -40l-59 -90q-42 22 -94 22q-48 0 -78 -26.5t-30 -64.5q0 -30 23 -50.5t64 -20.5q61 0 153 19l142 29v-103zM392 342
q-134 -19 -181 -85q-29 -41 -29 -88q0 -38 25.5 -60t75.5 -22q34 0 61 11z" />
    <glyph glyph-name="quotesingle" unicode="'" horiz-adv-x="251" 
d="M267 662l-81 -276h-81l26 276q29 36 75 36t61 -36z" />
    <glyph glyph-name="parenleft" unicode="(" horiz-adv-x="376" 
d="M449 761q-120 -124 -187 -288t-67 -337q0 -180 69 -326l-78 -50q-145 182 -145 417q0 185 87 349.5t250 285.5z" />
    <glyph glyph-name="parenright" unicode=")" horiz-adv-x="376" 
d="M336 395q0 -184 -87.5 -348.5t-250.5 -286.5l-71 51q120 124 187 288t67 337q0 180 -69 326l78 50q146 -183 146 -417z" />
    <glyph glyph-name="asterisk" unicode="*" horiz-adv-x="463" 
d="M501 720q0 -27 -20.5 -46.5t-47.5 -19.5q-20 0 -34 15t-14 35q0 27 20.5 46t47.5 19q21 0 34.5 -14.5t13.5 -34.5zM390 814q0 -27 -20.5 -46t-47.5 -19q-21 0 -34.5 14.5t-13.5 34.5q0 27 20.5 46.5t47.5 19.5q20 0 34 -15t14 -35zM353 678q0 -22 -15 -36.5t-37 -14.5
q-16 0 -27.5 11.5t-11.5 27.5q0 21 15.5 36t36.5 15q16 0 27.5 -11.5t11.5 -27.5zM425 570q0 -27 -20.5 -46t-47.5 -19q-21 0 -34.5 14.5t-13.5 34.5q0 27 20 46.5t47 19.5q21 0 35 -15t14 -35zM243 720q0 -27 -20.5 -46.5t-47.5 -19.5q-20 0 -34 15t-14 35q0 27 20.5 46
t47.5 19q21 0 34.5 -14.5t13.5 -34.5zM265 570q0 -27 -20.5 -46t-47.5 -19q-21 0 -34.5 14.5t-13.5 34.5q0 27 20 46.5t47 19.5q21 0 35 -15t14 -35z" />
    <glyph glyph-name="plus" unicode="+" horiz-adv-x="533" 
d="M497 378l-21 -106h-155l-30 -155h-114l30 155h-155l20 106h155l30 156h115l-30 -156h155z" />
    <glyph glyph-name="comma" unicode="," horiz-adv-x="294" 
d="M218 121l-201 -266h-97l135 266q39 47 98 47q30 0 46.5 -13t18.5 -34z" />
    <glyph glyph-name="hyphen" unicode="-" horiz-adv-x="356" 
d="M327 382l-22 -114h-261l22 114h261z" />
    <glyph glyph-name="period" unicode="." horiz-adv-x="282" 
d="M191 93q0 -41 -31.5 -71.5t-73.5 -30.5q-32 0 -53.5 22.5t-21.5 53.5q0 41 31.5 71t73.5 30q32 0 53.5 -22t21.5 -53z" />
    <glyph glyph-name="slash" unicode="/" horiz-adv-x="490" 
d="M554 756l-528 -978l-117 58l529 978z" />
    <glyph glyph-name="zero" unicode="0" horiz-adv-x="578" 
d="M552 462q0 -77 -19 -156.5t-55.5 -152t-100.5 -118.5t-144 -46q-91 0 -138 63.5t-47 173.5q0 60 11.5 123.5t37 126.5t61.5 112t90.5 80t118.5 31q92 0 138.5 -64t46.5 -173zM406 498q0 102 -56 102q-71 0 -117 -165q-39 -140 -39 -240q0 -101 57 -101q71 0 117 166
q38 137 38 238z" />
    <glyph glyph-name="one" unicode="1" horiz-adv-x="434" 
d="M432 688l-134 -688h-158l102 524q-61 -27 -170 -33v94q88 11 153.5 39.5t93.5 63.5h113z" />
    <glyph glyph-name="two" unicode="2" horiz-adv-x="517" 
d="M512 535q0 -33 -9.5 -63.5t-31.5 -61.5t-38 -49.5t-48 -51.5l-173 -180h230l-25 -129h-461l316 359q74 84 74 151q0 75 -95 75q-65 0 -128 -28l-18 101q85 41 200 41q104 0 155.5 -45.5t51.5 -118.5z" />
    <glyph glyph-name="three" unicode="3" horiz-adv-x="519" 
d="M499 555q0 -60 -39 -104.5t-100 -67.5v-2q49 -17 76 -54t27 -88q0 -103 -82 -176.5t-217 -73.5q-124 0 -199 39l62 105q56 -28 129 -28q64 0 104 36t40 89q0 42 -35 65.5t-100 23.5h-15l15 83q79 7 128 40t49 83q0 63 -82 63q-66 0 -134 -29l-19 101q90 39 197 39
q91 0 143 -39t52 -105z" />
    <glyph glyph-name="four" unicode="4" horiz-adv-x="547" 
d="M536 688l-91 -466h52l-18 -86h-51l-26 -136h-147l26 136h-277l18 92l358 460h156zM366 544h-2q-32 -53 -62 -92l-177 -230h174l42 218q12 62 25 104z" />
    <glyph glyph-name="five" unicode="5" horiz-adv-x="519" 
d="M524 688l-25 -128h-243l-44 -147q15 2 30 2q112 0 167 -47t55 -124q0 -106 -85 -180.5t-219 -74.5q-118 0 -196 39l62 106q55 -29 130 -29q66 0 105 38t39 91q0 91 -140 91q-51 0 -103 -8l114 371h353z" />
    <glyph glyph-name="six" unicode="6" horiz-adv-x="561" 
d="M528 592q-92 -22 -165 -69t-115 -110q33 9 68 9q91 0 141.5 -47t50.5 -123q0 -47 -16.5 -92t-48.5 -84t-87 -63t-126 -24q-95 0 -145 57t-50 147q0 79 30 157.5t87.5 149t152 124t213.5 75.5zM363 255q0 88 -95 88q-30 0 -60 -11q-29 -72 -29 -143q0 -99 70 -99
q53 0 83.5 53.5t30.5 111.5z" />
    <glyph glyph-name="seven" unicode="7" horiz-adv-x="509" 
d="M575 688l-126 -211q-159 -265 -246 -477h-194l351 560h-282l25 128h472z" />
    <glyph glyph-name="eight" unicode="8" horiz-adv-x="559" 
d="M546 553q0 -67 -40.5 -111.5t-113.5 -82.5q49 -33 76.5 -69t27.5 -87q0 -90 -73 -152t-200 -62q-90 0 -146.5 42t-56.5 113q0 41 14 75t41 60t54.5 44t67.5 38q-89 61 -89 139q0 83 69.5 141t180.5 58q84 0 136 -40.5t52 -105.5zM421 546q0 29 -20.5 47.5t-53.5 18.5
q-44 0 -75 -29t-31 -72q0 -51 67 -97q55 29 84 59t29 73zM355 198q0 34 -19 58t-54 49q-61 -31 -93.5 -63.5t-32.5 -80.5q0 -33 24 -54.5t59 -21.5q49 0 82.5 32.5t33.5 80.5z" />
    <glyph glyph-name="nine" unicode="9" horiz-adv-x="561" 
d="M549 494q0 -80 -30.5 -159t-88.5 -148.5t-152 -122.5t-212 -75l-10 107q92 22 165 69t115 110q-33 -9 -68 -9q-91 0 -141 47t-50 124q0 47 16.5 91.5t48.5 83.5t87 63t125 24q94 0 144.5 -57t50.5 -148zM405 503q0 99 -69 99q-53 0 -84 -53.5t-31 -111.5q0 -88 96 -88
q30 0 60 11q28 72 28 143z" />
    <glyph glyph-name="colon" unicode=":" horiz-adv-x="292" 
d="M262 407q0 -41 -31.5 -71.5t-73.5 -30.5q-32 0 -53.5 22.5t-21.5 53.5q0 41 31.5 71t73.5 30q32 0 53.5 -22t21.5 -53zM201 93q0 -41 -31.5 -71.5t-73.5 -30.5q-32 0 -53.5 22.5t-21.5 53.5q0 41 31.5 71t73.5 30q32 0 53.5 -22t21.5 -53z" />
    <glyph glyph-name="semicolon" unicode=";" horiz-adv-x="298" 
d="M269 407q0 -41 -31.5 -71.5t-73.5 -30.5q-32 0 -53.5 22.5t-21.5 53.5q0 41 31.5 71t73.5 30q32 0 53.5 -22t21.5 -53zM221 121l-201 -266h-97l136 266q39 47 97 47q30 0 46.5 -13t18.5 -34z" />
    <glyph glyph-name="less" unicode="&#x3c;" horiz-adv-x="533" 
d="M529 546l-23 -121l-309 -102v-2l269 -102l-22 -114l-392 173l19 94z" />
    <glyph glyph-name="equal" unicode="=" horiz-adv-x="533" 
d="M517 485l-20 -106h-425l20 106h425zM476 272l-20 -106h-425l20 106h425z" />
    <glyph glyph-name="greater" unicode="&#x3e;" horiz-adv-x="533" 
d="M496 372l-19 -94l-458 -173l23 121l310 102v2l-269 102l21 114z" />
    <glyph glyph-name="question" unicode="?" horiz-adv-x="456" 
d="M491 553q0 -72 -54 -119t-129 -69l-30 -112h-119l18 157q64 13 105.5 43.5t41.5 76.5q0 61 -83 61q-50 0 -106 -25l-23 93q78 40 179 40q93 0 146.5 -39.5t53.5 -106.5zM275 93q0 -41 -31 -71.5t-73 -30.5q-32 0 -54 22.5t-22 53.5q0 41 31.5 71t73.5 30q32 0 53.5 -22
t21.5 -53z" />
    <glyph glyph-name="at" unicode="@" horiz-adv-x="904" 
d="M877 414q0 -112 -58.5 -210.5t-158 -157t-212.5 -58.5q-97 0 -150 58.5t-53 148.5q0 125 80 224.5t204 99.5q90 0 144 -49l-103 -376q88 34 148.5 124t60.5 197q0 92 -55.5 148t-160.5 56q-99 0 -183 -40t-137.5 -104.5t-83.5 -144t-30 -161.5q0 -126 76 -203t209 -77
q180 0 332 104l42 -68q-171 -119 -388 -119q-164 0 -267 98t-103 260q0 101 39.5 197t109 171t173.5 121t223 46q140 0 221 -80.5t81 -204.5zM562 427q-21 12 -53 12q-48 0 -87 -40.5t-57.5 -95.5t-18.5 -106q0 -122 113 -122h7z" />
    <glyph glyph-name="A" unicode="A" horiz-adv-x="625" 
d="M565 0h-166l-11 153h-208l-72 -153h-159l357 688h170zM382 246l-16 224q-2 30 -2 89h-2q-16 -51 -33 -89l-105 -224h158z" />
    <glyph glyph-name="B" unicode="B" horiz-adv-x="601" 
d="M588 540q0 -67 -42.5 -113.5t-111.5 -65.5v-2q50 -15 80.5 -56t30.5 -91q0 -26 -6.5 -52.5t-27.5 -58.5t-53.5 -56t-91.5 -40t-136 -16q-134 0 -215 39l122 632q91 39 219 39q114 0 173 -44.5t59 -114.5zM434 534q0 74 -93 74q-30 0 -61 -9l-40 -203h38q101 0 135 58
q21 36 21 80zM387 230q0 89 -124 89h-38l-44 -225q24 -9 61 -9q86 0 122 56q23 36 23 89z" />
    <glyph glyph-name="C" unicode="C" horiz-adv-x="492" 
d="M539 659l-54 -97q-36 22 -78 22q-96 0 -153 -132q-41 -96 -41 -191q0 -66 24 -106t76 -40q44 0 86 24l17 -109q-66 -41 -156 -41q-106 0 -159 72.5t-53 188.5q0 71 20 145.5t59.5 144.5t109 114.5t156.5 44.5q94 0 146 -40z" />
    <glyph glyph-name="D" unicode="D" horiz-adv-x="622" 
d="M598 439q0 -55 -11 -112t-38.5 -119t-69 -109.5t-110 -78.5t-153.5 -31q-122 0 -201 39l122 632q90 39 210 39q121 0 186 -69.5t65 -190.5zM440 461q0 131 -103 131q-35 0 -54 -8l-93 -475q18 -8 52 -8q102 0 152 126q20 49 33 118.5t13 115.5z" />
    <glyph glyph-name="E" unicode="E" horiz-adv-x="459" 
d="M494 688l-21 -109h-189l-35 -175h166l-20 -106h-166l-37 -189h189l-21 -109h-351l134 688h351z" />
    <glyph glyph-name="F" unicode="F" horiz-adv-x="452" 
d="M493 688l-21 -109h-188l-35 -175h165l-20 -106h-165l-58 -298h-162l134 688h350z" />
    <glyph glyph-name="G" unicode="G" horiz-adv-x="616" 
d="M623 658l-62 -99q-45 25 -114 25q-130 0 -196 -139q-44 -95 -44 -194q0 -70 29 -109.5t80 -39.5q32 0 56 9l38 196h-88l18 97h239l-73 -376q-80 -39 -203 -39q-126 0 -190.5 71.5t-64.5 192.5q0 84 27 163t76.5 142.5t127.5 102t173 38.5q105 0 171 -41z" />
    <glyph glyph-name="H" unicode="H" horiz-adv-x="628" 
d="M641 688l-134 -688h-162l59 298h-175l-58 -298h-162l134 688h162l-56 -284h175l55 284h162z" />
    <glyph glyph-name="I" unicode="I" horiz-adv-x="295" 
d="M307 688l-134 -688h-162l134 688h162z" />
    <glyph glyph-name="J" unicode="J" horiz-adv-x="295" 
d="M307 688l-117 -601q-27 -136 -109.5 -216.5t-215.5 -91.5l22 114q110 31 138 180l120 615h162z" />
    <glyph glyph-name="K" unicode="K" horiz-adv-x="600" 
d="M658 688l-272 -326l149 -362h-179l-117 341h-2l-66 -341h-160l134 688h160l-61 -310h2l238 310h174z" />
    <glyph glyph-name="L" unicode="L" horiz-adv-x="434" 
d="M369 109l-21 -109h-337l134 688h162l-113 -579h175z" />
    <glyph glyph-name="M" unicode="M" horiz-adv-x="799" 
d="M765 688l-60 -688h-149l45 396q7 53 12 83h-2q-14 -39 -36 -83l-194 -396h-82l-37 396q-4 43 -4 83h-2q-7 -36 -20 -83l-113 -396h-140l208 688h159l34 -384q2 -32 2 -51t-1 -37h2q16 47 36 88l183 384h159z" />
    <glyph glyph-name="N" unicode="N" horiz-adv-x="654" 
d="M667 688l-134 -688h-122l-154 388q-13 35 -22 72h-2q-5 -40 -12 -81l-74 -379h-138l134 688h140l141 -357q15 -41 23 -69h2q4 37 12 78l67 348h139z" />
    <glyph glyph-name="O" unicode="O" horiz-adv-x="627" 
d="M604 451q0 -43 -7.5 -91t-23 -101t-43 -100.5t-64 -86t-90.5 -61t-118 -22.5q-106 0 -159 68t-53 181q0 44 7.5 92t23 101.5t43 100t64 84.5t90 60.5t117.5 22.5q106 0 159.5 -67.5t53.5 -180.5zM447 478q0 112 -75 112q-63 0 -105 -85q-25 -52 -44.5 -140t-19.5 -148
q0 -112 75 -112q71 0 114 102q22 52 38.5 134.5t16.5 136.5z" />
    <glyph glyph-name="P" unicode="P" horiz-adv-x="576" 
d="M582 520q0 -48 -16.5 -92t-51.5 -84t-99.5 -64t-151.5 -24q-23 0 -45 4l-50 -260h-159l128 660q94 39 214 39q117 0 174 -50t57 -129zM429 524q0 83 -92 83q-29 0 -53 -8l-48 -246q18 -3 43 -3q91 0 128 75q22 44 22 99z" />
    <glyph glyph-name="Q" unicode="Q" horiz-adv-x="627" 
d="M604 451q0 -70 -16 -145t-61 -154.5t-112 -119.5l88 -133l-135 -90l-60 185q-27 -5 -50 -5q-106 0 -159 68t-53 181q0 44 7.5 92t23 101.5t43 100t64 84.5t90 60.5t117.5 22.5q106 0 159.5 -67.5t53.5 -180.5zM447 478q0 112 -75 112q-63 0 -105 -85q-25 -52 -44.5 -140
t-19.5 -148q0 -112 75 -112q71 0 114 102q22 52 38.5 134.5t16.5 136.5z" />
    <glyph glyph-name="R" unicode="R" horiz-adv-x="595" 
d="M590 529q0 -80 -50 -138t-146 -87v-2q32 -37 51 -91l74 -211h-174l-56 206q-16 63 -64 88l-57 -294h-158l128 660q94 39 212 39q115 0 177.5 -44.5t62.5 -125.5zM432 524q0 83 -93 83q-32 0 -54 -8l-47 -239q15 -4 42 -4q86 0 128 75q24 43 24 93z" />
    <glyph glyph-name="S" unicode="S" horiz-adv-x="505" 
d="M515 659l-55 -98q-46 27 -106 27q-50 0 -80.5 -26t-30.5 -67q0 -26 21.5 -47t51.5 -38t60.5 -38t52 -56.5t21.5 -82.5q0 -102 -76 -173t-203 -71q-113 0 -187 40l61 110q54 -30 122 -30q53 0 83.5 26.5t30.5 65.5q0 22 -15 41.5t-37 33t-48.5 32t-48.5 37.5t-37 50
t-15 70q0 100 74 167t195 67q101 0 166 -40z" />
    <glyph glyph-name="T" unicode="T" horiz-adv-x="472" 
d="M519 688l-21 -109h-124l-113 -579h-162l113 579h-124l21 109h410z" />
    <glyph glyph-name="U" unicode="U" horiz-adv-x="614" 
d="M627 688l-94 -485q-20 -103 -95 -159t-185 -56q-92 0 -149 47t-57 129q0 27 6 59l90 465h162l-91 -473q-4 -22 -4 -35q0 -31 19 -49.5t51 -18.5q39 0 66.5 24t35.5 65l94 487h151z" />
    <glyph glyph-name="V" unicode="V" horiz-adv-x="568" 
d="M640 688l-341 -688h-141l-73 688h167l19 -399v-23q0 -27 -2 -67h2q14 45 34 90l176 399h159z" />
    <glyph glyph-name="W" unicode="W" horiz-adv-x="841" 
d="M899 688l-289 -688h-144l-17 362v31q0 24 1 43h-2q-9 -38 -25 -74l-159 -362h-143l-21 688h156l-6 -402q0 -35 -5 -80h2q13 43 28 80l170 402h115l10 -402v-15q0 -35 -3 -65h2q11 45 25 80l154 402h151z" />
    <glyph glyph-name="X" unicode="X" horiz-adv-x="561" 
d="M617 688l-233 -328l115 -360h-176l-53 234h-2l-146 -234h-170l254 353l-104 335h167l49 -216h2l136 216h161z" />
    <glyph glyph-name="Y" unicode="Y" horiz-adv-x="532" 
d="M609 688l-261 -399l-56 -289h-162l56 289l-106 399h166l48 -260h2l155 260h158z" />
    <glyph glyph-name="Z" unicode="Z" horiz-adv-x="477" 
d="M517 688l-322 -579h214l-21 -109h-426l329 579h-194l22 109h398z" />
    <glyph glyph-name="bracketleft" unicode="[" horiz-adv-x="352" 
d="M411 785l-16 -85h-111l-161 -829h111l-17 -86h-248l194 1000h248z" />
    <glyph glyph-name="backslash" unicode="\" horiz-adv-x="469" 
d="M393 -179l-130 -31l-149 983l130 32z" />
    <glyph glyph-name="bracketright" unicode="]" horiz-adv-x="352" 
d="M383 785l-194 -1000h-248l17 86h111l161 829h-111l16 85h248z" />
    <glyph glyph-name="asciicircum" unicode="^" horiz-adv-x="506" 
d="M499 500l-70 -64l-117 135l-169 -135l-52 65l179 174q30 28 62 28q34 0 53 -28z" />
    <glyph glyph-name="underscore" unicode="_" horiz-adv-x="520" 
d="M460 -75l-15 -76h-540l15 76h540z" />
    <glyph glyph-name="grave" unicode="`" 
d="M276 596h-82l-102 137q24 27 71 27q42 0 71 -21z" />
    <glyph glyph-name="a" unicode="a" horiz-adv-x="542" 
d="M500 401q0 -26 -4 -47l-63 -325q-83 -40 -214 -40q-99 0 -154 37t-55 108q0 85 72 139q81 61 268 79l5 25q2 10 2 20q0 54 -80 54q-72 0 -151 -34l-16 92q92 41 205 41q88 0 136.5 -37t48.5 -112zM336 279q-104 -10 -148 -57q-31 -33 -31 -76q0 -70 84 -70q33 0 58 11z
" />
    <glyph glyph-name="b" unicode="b" horiz-adv-x="570" 
d="M536 352q0 -43 -9 -88.5t-32.5 -96t-59.5 -89t-96.5 -64t-136.5 -25.5q-125 0 -193 40l147 756h155l-50 -257q46 19 96 19q85 0 132 -54t47 -141zM383 353q0 104 -78 104q-28 0 -60 -13l-68 -353q19 -8 46 -8q80 0 122 94q38 83 38 176z" />
    <glyph glyph-name="c" unicode="c" horiz-adv-x="432" 
d="M450 511l-49 -84q-25 19 -65 19q-68 0 -109 -81q-37 -71 -37 -153q0 -52 20.5 -81.5t57.5 -29.5q38 0 70 21l18 -94q-57 -39 -143 -39q-83 0 -132.5 57t-49.5 152q0 88 32.5 167t99.5 132t154 53q83 0 133 -39z" />
    <glyph glyph-name="d" unicode="d" horiz-adv-x="570" 
d="M608 785l-146 -756q-83 -40 -214 -40q-103 0 -160.5 55t-57.5 152q0 61 19 121.5t54.5 112t95 84t132.5 32.5q41 0 74 -9l48 248h155zM389 451q-25 7 -44 7q-81 0 -123 -91q-39 -85 -39 -171q0 -109 87 -109q26 0 49 9z" />
    <glyph glyph-name="e" unicode="e" horiz-adv-x="558" 
d="M525 358q0 -44 -12 -96l-333 -46v-12q0 -51 29 -78.5t83 -27.5q72 0 141 31l17 -100q-83 -40 -198 -40q-106 0 -162.5 58t-56.5 163q0 44 10 89.5t33.5 91t57 80.5t85.5 57t115 22q92 0 141.5 -51t49.5 -141zM382 378q0 81 -68 81q-50 0 -84 -45.5t-46 -121.5l193 30
q5 26 5 56z" />
    <glyph glyph-name="f" unicode="f" horiz-adv-x="353" 
d="M427 784l-20 -99h-13q-70 0 -87 -87l-12 -59h84l-20 -100h-83l-85 -439h-156l85 439h-58l19 100h58l11 56q19 94 78.5 143t155.5 49q26 0 43 -3z" />
    <glyph glyph-name="g" unicode="g" horiz-adv-x="570" 
d="M555 511l-98 -506q-45 -230 -276 -230q-121 0 -200 41l57 99q55 -29 129 -29q111 0 133 106l5 24q-36 -17 -96 -17q-83 0 -130.5 54t-47.5 144q0 42 8.5 85.5t32 93t59.5 87t98 62.5t140 25q114 0 186 -39zM389 450q-19 9 -47 9q-80 0 -122 -94q-37 -85 -37 -170
q0 -105 83 -105q29 0 55 12z" />
    <glyph glyph-name="h" unicode="h" horiz-adv-x="579" 
d="M539 404q0 -18 -4 -42l-70 -362h-156l70 362q3 15 3 28q0 61 -69 61q-35 0 -69 -17l-84 -434h-156l152 785h156l-51 -264q58 25 117 25q79 0 120 -39t41 -103z" />
    <glyph glyph-name="i" unicode="i" 
d="M303 703q0 -33 -28 -58t-68 -25q-30 0 -50.5 18.5t-20.5 45.5q0 33 28 58t68 25q30 0 50.5 -19t20.5 -45zM267 539l-105 -539h-156l105 539h156z" />
    <glyph glyph-name="j" unicode="j" horiz-adv-x="282" 
d="M305 703q0 -33 -28 -58t-68 -25q-30 0 -50.5 18.5t-20.5 45.5q0 33 28 58t68 25q30 0 50.5 -19t20.5 -45zM269 539l-89 -458q-53 -272 -304 -301l22 109q52 21 80 61t42 112l93 477h156z" />
    <glyph glyph-name="k" unicode="k" horiz-adv-x="558" 
d="M588 539l-233 -259l144 -280h-172l-113 263h-2l-51 -263h-155l152 785h155l-95 -493h2l199 247h169z" />
    <glyph glyph-name="l" unicode="l" 
d="M315 785l-152 -785h-156l152 785h156z" />
    <glyph glyph-name="m" unicode="m" horiz-adv-x="873" 
d="M832 404q0 -25 -4 -46l-69 -358h-153l70 360q3 16 3 32q0 61 -67 61q-40 0 -72 -29l-82 -424h-153l72 372q2 12 2 24q0 57 -69 57q-38 0 -68 -11l-86 -442h-152l98 509q103 40 215 40q108 0 158 -53q80 53 179 53q89 0 133.5 -39.5t44.5 -105.5z" />
    <glyph glyph-name="n" unicode="n" horiz-adv-x="579" 
d="M537 401q0 -26 -4 -49l-68 -352h-156l69 360q4 22 4 33q0 60 -72 60q-34 0 -65 -11l-85 -442h-156l98 510q100 39 226 39q105 0 157 -39.5t52 -108.5z" />
    <glyph glyph-name="o" unicode="o" horiz-adv-x="566" 
d="M529 341q0 -43 -9.5 -88.5t-32 -93.5t-56 -85t-86 -61t-117.5 -24q-96 0 -146.5 57.5t-50.5 151.5q0 58 16.5 116.5t50.5 113t94.5 88.5t139.5 34q96 0 146.5 -57t50.5 -152zM378 359q0 95 -62 95q-58 0 -94 -83q-16 -38 -27.5 -93t-11.5 -93q0 -95 62 -95q59 0 95 86
q16 37 27 91t11 92z" />
    <glyph glyph-name="p" unicode="p" horiz-adv-x="570" 
d="M534 342q0 -63 -19 -123.5t-54 -111.5t-93.5 -82.5t-130.5 -31.5q-47 0 -78 9l-41 -217h-156l140 726q92 39 209 39q106 0 164.5 -55t58.5 -153zM383 351q0 107 -87 107q-24 0 -49 -9l-70 -357q18 -6 40 -6q94 0 135 109q31 80 31 156z" />
    <glyph glyph-name="q" unicode="q" horiz-adv-x="570" 
d="M555 511l-141 -726h-155l43 224q-35 -16 -92 -16q-84 0 -132 56.5t-48 146.5q0 41 8.5 84.5t32.5 93t60.5 87.5t99 63.5t141.5 25.5q111 0 183 -39zM388 451q-17 8 -47 8q-82 0 -124 -101q-35 -85 -35 -164q0 -107 81 -107q31 0 57 12z" />
    <glyph glyph-name="r" unicode="r" horiz-adv-x="359" 
d="M399 546l-49 -106q-23 11 -55 11q-27 0 -49 -8l-86 -443h-156l99 510q88 40 228 40q30 0 68 -4z" />
    <glyph glyph-name="s" unicode="s" horiz-adv-x="446" 
d="M439 511l-53 -85q-40 26 -89 26q-37 0 -58 -19.5t-21 -46.5q0 -19 17.5 -35t42 -29.5t49 -29.5t42 -44t17.5 -65q0 -80 -64.5 -137t-179.5 -57q-96 0 -162 39l59 95q45 -28 100 -28q37 0 61 20t24 49q0 21 -17 37t-41 29.5t-47.5 29t-40.5 42.5t-17 64q0 78 60 131
t158 53q95 0 160 -39z" />
    <glyph glyph-name="t" unicode="t" horiz-adv-x="364" 
d="M379 539l-20 -100h-83l-54 -278q-3 -17 -3 -25q0 -18 11.5 -27.5t29.5 -9.5t35 7l-20 -99q-34 -16 -78 -16q-64 0 -99.5 34.5t-35.5 92.5q0 21 5 46l53 275h-58l19 100h58l22 115l165 41l-31 -156h84z" />
    <glyph glyph-name="u" unicode="u" horiz-adv-x="572" 
d="M562 539l-99 -509q-88 -41 -225 -41q-98 0 -150 39.5t-52 113.5q0 24 5 52l67 345h156l-69 -353q-3 -15 -3 -33q0 -60 67 -60q33 0 62 12l85 434h156z" />
    <glyph glyph-name="v" unicode="v" horiz-adv-x="533" 
d="M569 539l-282 -539h-149l-74 539h164l15 -313v-14q0 -30 -4 -70h2q13 45 31 84l143 313h154z" />
    <glyph glyph-name="w" unicode="w" horiz-adv-x="808" 
d="M836 539l-254 -539h-144l-19 298v29q0 21 1 39h-2q-11 -38 -24 -68l-134 -298h-143l-46 539h154l2 -313q0 -34 -6 -80h2q14 45 29 80l142 313h127l16 -313v-15q0 -29 -3 -65h2q11 41 26 80l128 313h146z" />
    <glyph glyph-name="x" unicode="x" horiz-adv-x="524" 
d="M548 539l-203 -259l116 -280h-167l-55 172h-2l-119 -172h-165l225 278l-104 261h158l50 -160h2l112 160h152z" />
    <glyph glyph-name="y" unicode="y" horiz-adv-x="533" 
d="M569 539l-393 -754h-168l131 215l-75 539h164l13 -322v-14q0 -31 -4 -69h2q18 53 31 83l145 322h154z" />
    <glyph glyph-name="z" unicode="z" horiz-adv-x="440" 
d="M451 539l-262 -439h181l-19 -100h-381l266 439h-164l19 100h360z" />
    <glyph glyph-name="braceleft" unicode="{" horiz-adv-x="390" 
d="M449 785l-16 -84q-61 0 -91.5 -30.5t-42.5 -91.5l-30 -152q-11 -56 -34.5 -90t-67.5 -50v-2q51 -21 51 -96q0 -22 -5 -50l-28 -147q-5 -27 -5 -43q0 -78 92 -78l-17 -86h-32q-86 0 -132.5 43t-46.5 118q0 29 5 55l29 150q4 22 4 33q0 54 -54 58l17 87q68 6 86 92l31 157
q41 207 255 207h32z" />
    <glyph glyph-name="bar" unicode="|" horiz-adv-x="249" 
d="M282 785l-194 -1000h-121l194 1000h121z" />
    <glyph glyph-name="braceright" unicode="}" horiz-adv-x="390" 
d="M363 329l-17 -87q-69 -6 -86 -91l-31 -159q-41 -207 -256 -207h-32l17 86q60 0 91 30t43 91l30 153q11 57 34.5 91t67.5 49v2q-52 21 -52 95q0 18 6 50l28 147q5 27 5 44q0 78 -92 78l16 84h32q87 0 133.5 -43t46.5 -118q0 -25 -6 -55l-29 -148q-3 -17 -3 -34
q0 -54 54 -58z" />
    <glyph glyph-name="asciitilde" unicode="~" horiz-adv-x="506" 
d="M480 400q-46 -150 -153 -150q-36 0 -70 31t-62 31q-45 0 -69 -63l-79 31q47 151 153 151q36 0 69.5 -31t61.5 -31q46 0 69 62z" />
    <glyph glyph-name="uni00A0" unicode="&#xa0;" horiz-adv-x="268" 
 />
    <glyph glyph-name="exclamdown" unicode="&#xa1;" horiz-adv-x="326" 
d="M280 406q0 -41 -31.5 -71t-73.5 -30q-32 0 -53.5 22t-21.5 53q0 41 31.5 71.5t73.5 30.5q32 0 53.5 -22.5t21.5 -53.5zM217 220l-52 -435h-186l118 435h120z" />
    <glyph glyph-name="cent" unicode="&#xa2;" horiz-adv-x="445" 
d="M460 555l-47 -79q-27 15 -62 15q-46 0 -79 -33.5t-45.5 -75t-12.5 -82.5q0 -44 21 -68t60 -24q36 0 68 18l17 -88q-44 -27 -112 -32l-21 -106h-81l22 111q-61 15 -95.5 62.5t-34.5 120.5q0 105 58.5 188t162.5 101l21 105h81l-20 -102q57 -6 99 -31z" />
    <glyph glyph-name="sterling" unicode="&#xa3;" horiz-adv-x="564" 
d="M584 660l-52 -99q-45 24 -101 24q-72 0 -104.5 -51.5t-32.5 -126.5h163l-20 -100h-142q-8 -106 -67 -178h254l-25 -129h-458q164 154 164 307h-98l19 100h71q-2 30 -2 46q0 104 69.5 175t197.5 71q98 0 164 -39z" />
    <glyph glyph-name="currency" unicode="&#xa4;" horiz-adv-x="586" 
d="M586 510l-86 -72q12 -32 12 -71q0 -90 -58 -167l57 -72l-65 -55l-54 68q-61 -40 -132 -40q-64 0 -111 42l-82 -69l-51 63l87 72q-13 36 -13 74q0 90 57 165l-57 72l65 55l54 -67q61 41 133 41q65 0 113 -43l80 67zM385 368q0 39 -15.5 61.5t-43.5 22.5q-44 0 -76 -52.5
t-32 -113.5q0 -39 16 -62t43 -23q45 0 76.5 54.5t31.5 112.5z" />
    <glyph glyph-name="yen" unicode="&#xa5;" horiz-adv-x="634" 
d="M667 688l-169 -245h95l-13 -65h-127l-60 -87h170l-13 -65h-170l-44 -226h-149l44 226h-170l13 65h170l-26 87h-128l13 65h95l-74 245h155l63 -280h2l176 280h147z" />
    <glyph glyph-name="brokenbar" unicode="&#xa6;" horiz-adv-x="249" 
d="M282 785l-77 -400h-121l77 400h121zM165 184l-77 -399h-121l77 399h121z" />
    <glyph glyph-name="section" unicode="&#xa7;" horiz-adv-x="564" 
d="M535 658l-53 -91q-40 29 -92 29q-38 0 -59.5 -21.5t-21.5 -49.5q0 -23 20.5 -45t49.5 -42t58 -43t49.5 -58.5t20.5 -78.5q0 -122 -143 -196q36 -45 36 -93q0 -77 -64 -135.5t-176 -58.5q-98 0 -161 43l57 98q41 -30 101 -30q40 0 63.5 22.5t23.5 53.5q0 25 -20.5 48
t-50 44t-59 45t-50 60.5t-20.5 80.5q0 126 145 199q-26 36 -26 79q0 75 61 128t162 53q91 0 149 -41zM377 236q0 17 -6 32.5t-22.5 32t-25.5 24.5t-37 28l-34 25q-79 -43 -79 -110q0 -13 3 -24t11 -22l14 -20q6 -9 20.5 -20.5t21.5 -17.5t25 -20l25 -18q84 45 84 110z" />
    <glyph glyph-name="dieresis" unicode="&#xa8;" 
d="M370 671q0 -29 -22 -50.5t-53 -21.5q-23 0 -38.5 16.5t-15.5 38.5q0 29 22.5 50.5t52.5 21.5q23 0 38.5 -16.5t15.5 -38.5zM186 671q0 -29 -22 -50.5t-53 -21.5q-23 0 -38.5 16.5t-15.5 38.5q0 29 22.5 50.5t52.5 21.5q23 0 38.5 -16.5t15.5 -38.5z" />
    <glyph glyph-name="copyright" unicode="&#xa9;" horiz-adv-x="806" 
d="M777 402q0 -109 -60.5 -205.5t-160 -152.5t-209.5 -56q-128 0 -211.5 86t-83.5 212q0 82 36 159t94.5 132.5t137.5 89t162 33.5q129 0 212 -86t83 -212zM693 401q0 99 -61.5 164t-160.5 65q-131 0 -233 -105.5t-102 -236.5q0 -98 62.5 -163t161.5 -65q131 0 232 105
t101 236zM542 521l-27 -49q-23 12 -53 12q-60 0 -95 -56.5t-35 -119.5q0 -41 19.5 -67t57.5 -26q30 0 56 12l9 -54q-37 -22 -93 -22q-64 0 -98.5 44t-34.5 111q0 93 57 165t149 72q53 0 88 -22z" />
    <glyph glyph-name="ordfeminine" unicode="&#xaa;" horiz-adv-x="390" 
d="M392 593q0 -19 -3 -33l-42 -214q-56 -28 -143 -28q-64 0 -103 25t-39 73q0 49 40 86q54 49 186 61l2 11q2 10 2 17q0 37 -52 37q-46 0 -99 -22l-11 64q67 28 139 28q58 0 90.5 -27t32.5 -78zM278 510q-75 -8 -101 -40q-16 -21 -16 -46q0 -45 54 -45q19 0 39 8z" />
    <glyph glyph-name="guillemotleft" unicode="&#xab;" horiz-adv-x="526" 
d="M526 522l-147 -191l73 -190l-93 -44l-93 244l179 232zM308 522l-147 -191l73 -190l-93 -44l-93 244l179 232z" />
    <glyph glyph-name="logicalnot" unicode="&#xac;" horiz-adv-x="533" 
d="M497 378l-51 -261h-115l31 155h-310l20 106h425z" />
    <glyph glyph-name="uni00AD" unicode="&#xad;" horiz-adv-x="356" 
d="M327 382l-22 -114h-261l22 114h261z" />
    <glyph glyph-name="registered" unicode="&#xae;" horiz-adv-x="806" 
d="M777 402q0 -109 -60.5 -205t-160 -152.5t-209.5 -56.5q-128 0 -211.5 86t-83.5 212q0 82 36 159t94.5 132.5t137.5 89t162 33.5q129 0 212 -86t83 -212zM693 401q0 99 -61.5 164t-160.5 65q-131 0 -233 -105.5t-102 -236.5q0 -98 62.5 -163t161.5 -65q131 0 232 105
t101 236zM569 454q0 -49 -31 -80.5t-83 -44.5v-2q21 -21 30 -47l44 -118h-87l-35 116q-12 39 -37 49l-32 -165h-79l70 364q48 21 114 21q60 0 93 -24.5t33 -68.5zM490 453q0 48 -54 48q-17 0 -34 -5l-26 -136q7 -2 25 -2q52 0 77 45q12 23 12 50z" />
    <glyph glyph-name="macron" unicode="&#xaf;" 
d="M361 690l-17 -81h-283l16 81h284z" />
    <glyph glyph-name="degree" unicode="&#xb0;" horiz-adv-x="418" 
d="M418 567q0 -73 -56 -127.5t-130 -54.5q-55 0 -93 38.5t-38 94.5q0 73 55.5 127t130.5 54q57 0 94 -38t37 -94zM338 559q0 27 -17 45.5t-47 18.5q-37 0 -65.5 -29t-28.5 -67q0 -27 17.5 -45.5t46.5 -18.5q37 0 65.5 29t28.5 67z" />
    <glyph glyph-name="plusminus" unicode="&#xb1;" horiz-adv-x="533" 
d="M504 414l-19 -97h-154l-28 -146h-115l28 146h-156l19 97h155l29 148h115l-29 -148h155zM443 97l-19 -97h-425l19 97h425z" />
    <glyph glyph-name="uni00B2" unicode="&#xb2;" horiz-adv-x="373" 
d="M415 795q0 -25 -12 -50t-26 -41t-41 -43l-103 -103h141l-16 -82h-301l199 218q44 48 44 86q0 42 -59 42q-34 0 -80 -17l-12 66q59 25 129 25q69 0 103 -28t34 -73z" />
    <glyph glyph-name="uni00B3" unicode="&#xb3;" horiz-adv-x="373" 
d="M411 806q0 -69 -85 -100v-2q65 -22 65 -88q0 -63 -52.5 -105.5t-141.5 -42.5q-79 0 -128 24l40 68q33 -16 83 -16q40 0 63.5 20t23.5 49q0 24 -23.5 37.5t-63.5 13.5h-8l10 53q48 4 78.5 23.5t30.5 49.5q0 33 -51 33q-44 0 -85 -16l-11 65q60 24 127 24q61 0 94.5 -24.5
t33.5 -65.5z" />
    <glyph glyph-name="acute" unicode="&#xb4;" 
d="M362 733l-153 -137h-91l97 143q34 21 80 21q49 0 67 -27z" />
    <glyph glyph-name="uni00B5" unicode="&#xb5;" horiz-adv-x="574" 
d="M564 539l-97 -498q-85 -51 -201 -51q-61 0 -103 20l-43 -225h-156l146 754h156l-83 -428q27 -19 68 -19t74 19l83 428h156z" />
    <glyph glyph-name="paragraph" unicode="&#xb6;" horiz-adv-x="652" 
d="M659 660l-170 -875h-132l156 804q-37 12 -91 12q-20 0 -37 -3l-158 -813h-132l92 475q-58 20 -87.5 67t-29.5 107q0 118 96 191.5t275 73.5q125 0 218 -39z" />
    <glyph glyph-name="periodcentered" unicode="&#xb7;" horiz-adv-x="282" 
d="M239 339q0 -41 -31.5 -71.5t-73.5 -30.5q-32 0 -53.5 22.5t-21.5 53.5q0 41 31 71.5t73 30.5q32 0 54 -22.5t22 -53.5z" />
    <glyph glyph-name="cedilla" unicode="&#xb8;" 
d="M196 -114q0 -99 -202 -99q-42 0 -84 5l35 52q24 -3 52 -3q94 0 94 39q0 23 -55 23q-28 0 -54 -3l31 47q30 3 68 3q115 0 115 -64z" />
    <glyph glyph-name="uni00B9" unicode="&#xb9;" horiz-adv-x="373" 
d="M396 888l-80 -412h-113l60 307q-38 -14 -106 -18v61q109 11 157 62h82z" />
    <glyph glyph-name="ordmasculine" unicode="&#xba;" horiz-adv-x="401" 
d="M410 554q0 -95 -55 -165.5t-147 -70.5q-63 0 -96.5 40.5t-33.5 103.5q0 94 55 165t146 71q63 0 97 -40.5t34 -103.5zM307 570q0 57 -40 57q-35 0 -58 -47q-28 -62 -28 -129q0 -58 40 -58q39 0 61 51q25 59 25 126z" />
    <glyph glyph-name="guillemotright" unicode="&#xbb;" horiz-adv-x="526" 
d="M498 329l-179 -232l-81 51l147 191l-73 190l93 44zM280 329l-179 -232l-81 51l147 191l-73 190l93 44z" />
    <glyph glyph-name="onequarter" unicode="&#xbc;" horiz-adv-x="878" 
d="M808 412l-54 -275h36l-11 -57h-36l-15 -80h-101l15 80h-178l12 58l224 274h108zM710 667l-438 -689l-70 43l438 689zM357 688l-80 -412h-112l59 307q-38 -14 -105 -18v61q109 11 157 62h81zM693 321h-2q-14 -23 -39 -56l-101 -128h103l24 122q9 42 15 62z" />
    <glyph glyph-name="onehalf" unicode="&#xbd;" horiz-adv-x="878" 
d="M827 319q0 -25 -12 -50t-25.5 -41t-40.5 -43l-103 -103h141l-16 -82h-301l199 218q44 48 44 86q0 42 -59 42q-36 0 -78 -16l-11 66q59 24 126 24q69 0 102.5 -28t33.5 -73zM681 667l-438 -689l-69 43l437 689zM357 688l-80 -412h-112l59 307q-38 -14 -105 -18v61
q109 11 157 62h81z" />
    <glyph glyph-name="threequarters" unicode="&#xbe;" horiz-adv-x="878" 
d="M808 412l-54 -275h36l-11 -57h-36l-15 -80h-101l15 80h-178l12 58l224 274h108zM718 667l-438 -689l-69 43l438 689zM370 606q0 -69 -85 -100v-2q31 -10 47.5 -33.5t16.5 -54.5q0 -63 -52 -105.5t-141 -42.5q-80 0 -129 24l40 68q33 -16 83 -16q40 0 63.5 20t23.5 49
q0 24 -23 37.5t-63 13.5h-9l10 53q48 4 79 23.5t31 49.5q0 33 -52 33q-44 0 -85 -16l-11 65q60 24 127 24q61 0 95 -24.5t34 -65.5zM693 321h-2q-14 -23 -39 -56l-101 -128h103l24 122q9 42 15 62z" />
    <glyph glyph-name="questiondown" unicode="&#xbf;" horiz-adv-x="456" 
d="M367 406q0 -41 -31 -71t-73 -30q-32 0 -54 22t-22 53q0 41 31.5 71.5t73.5 30.5q32 0 53.5 -22.5t21.5 -53.5zM350 -186q-78 -40 -179 -40q-93 0 -146 39.5t-53 106.5q0 72 54 119t128 69l31 112h119l-19 -157q-64 -13 -105.5 -43.5t-41.5 -76.5q0 -61 84 -61
q50 0 106 25z" />
    <glyph glyph-name="Agrave" unicode="&#xc0;" horiz-adv-x="625" 
d="M565 0h-166l-11 153h-208l-72 -153h-159l357 688h170zM382 246l-16 224q-2 30 -2 89h-2q-16 -51 -33 -89l-105 -224h158zM450 745h-82l-102 137q24 27 71 27q42 0 71 -21z" />
    <glyph glyph-name="Aacute" unicode="&#xc1;" horiz-adv-x="625" 
d="M565 0h-166l-11 153h-208l-72 -153h-159l357 688h170zM382 246l-16 224q-2 30 -2 89h-2q-16 -51 -33 -89l-105 -224h158zM591 882l-153 -137h-91l97 143q34 21 80 21q49 0 67 -27z" />
    <glyph glyph-name="Acircumflex" unicode="&#xc2;" horiz-adv-x="625" 
d="M565 0h-166l-11 153h-208l-72 -153h-159l357 688h170zM382 246l-16 224q-2 30 -2 89h-2q-16 -51 -33 -89l-105 -224h158zM551 779l-48 -41l-87 78l-114 -78l-40 41l118 105q20 19 48 19q26 0 41 -19z" />
    <glyph glyph-name="Atilde" unicode="&#xc3;" horiz-adv-x="625" 
d="M565 0h-166l-11 153h-208l-72 -153h-159l357 688h170zM382 246l-16 224q-2 30 -2 89h-2q-16 -51 -33 -89l-105 -224h158zM568 849q-33 -103 -109 -103q-27 0 -52 20.5t-44 20.5q-31 0 -46 -41l-61 21q32 102 109 102q27 0 52.5 -20.5t44.5 -20.5q30 0 46 42z" />
    <glyph glyph-name="Adieresis" unicode="&#xc4;" horiz-adv-x="625" 
d="M565 0h-166l-11 153h-208l-72 -153h-159l357 688h170zM382 246l-16 224q-2 30 -2 89h-2q-16 -51 -33 -89l-105 -224h158zM388 820q0 -29 -22 -50.5t-53 -21.5q-23 0 -38.5 16.5t-15.5 38.5q0 29 22.5 50.5t52.5 21.5q23 0 38.5 -16.5t15.5 -38.5zM572 820
q0 -29 -22 -50.5t-53 -21.5q-23 0 -38.5 16.5t-15.5 38.5q0 29 22.5 50.5t52.5 21.5q23 0 38.5 -16.5t15.5 -38.5z" />
    <glyph glyph-name="Aring" unicode="&#xc5;" horiz-adv-x="625" 
d="M565 0h-166l-11 153h-208l-72 -153h-159l357 688h170zM382 246l-16 224q-2 30 -2 89h-2q-16 -51 -33 -89l-105 -224h158zM509 845q0 -42 -31.5 -72.5t-73.5 -30.5q-33 0 -55 22.5t-22 53.5q0 42 31.5 72.5t73.5 30.5q33 0 55 -22t22 -54zM458 840q0 14 -9 23t-23 9
q-19 0 -33.5 -15t-14.5 -34q0 -14 9 -23t23 -9q19 0 33.5 15t14.5 34z" />
    <glyph glyph-name="AE" unicode="&#xc6;" horiz-adv-x="771" 
d="M766 688l-22 -109h-217l7 -175h176l-21 -106h-154l6 -189h167l-21 -109h-301l3 153h-210l-86 -153h-159l424 688h408zM400 559h-2q-17 -46 -40 -88l-127 -225h160l5 225q2 71 4 88z" />
    <glyph glyph-name="Ccedilla" unicode="&#xc7;" horiz-adv-x="492" 
d="M539 659l-54 -97q-36 22 -78 22q-96 0 -153 -132q-41 -96 -41 -191q0 -66 24 -106t76 -40q44 0 86 24l17 -109q-66 -41 -156 -41q-106 0 -159 72.5t-53 188.5q0 71 20 145.5t59.5 144.5t109 114.5t156.5 44.5q94 0 146 -40zM306 -114q0 -99 -202 -99q-42 0 -84 5l35 52
q24 -3 52 -3q94 0 94 39q0 23 -55 23q-28 0 -54 -3l31 47q30 3 68 3q115 0 115 -64z" />
    <glyph glyph-name="Egrave" unicode="&#xc8;" horiz-adv-x="459" 
d="M494 688l-21 -109h-189l-35 -175h166l-20 -106h-166l-37 -189h189l-21 -109h-351l134 688h351zM395 745h-82l-102 137q24 27 71 27q42 0 71 -21z" />
    <glyph glyph-name="Eacute" unicode="&#xc9;" horiz-adv-x="459" 
d="M494 688l-21 -109h-189l-35 -175h166l-20 -106h-166l-37 -189h189l-21 -109h-351l134 688h351zM506 882l-153 -137h-91l97 143q34 21 80 21q49 0 67 -27z" />
    <glyph glyph-name="Ecircumflex" unicode="&#xca;" horiz-adv-x="459" 
d="M494 688l-21 -109h-189l-35 -175h166l-20 -106h-166l-37 -189h189l-21 -109h-351l134 688h351zM472 779l-48 -41l-87 78l-114 -78l-40 41l118 105q20 19 48 19q26 0 41 -19z" />
    <glyph glyph-name="Edieresis" unicode="&#xcb;" horiz-adv-x="459" 
d="M494 688l-21 -109h-189l-35 -175h166l-20 -106h-166l-37 -189h189l-21 -109h-351l134 688h351zM314 820q0 -29 -22 -50.5t-53 -21.5q-23 0 -38.5 16.5t-15.5 38.5q0 29 22.5 50.5t52.5 21.5q23 0 38.5 -16.5t15.5 -38.5zM498 820q0 -29 -22 -50.5t-53 -21.5
q-23 0 -38.5 16.5t-15.5 38.5q0 29 22.5 50.5t52.5 21.5q23 0 38.5 -16.5t15.5 -38.5z" />
    <glyph glyph-name="Igrave" unicode="&#xcc;" horiz-adv-x="295" 
d="M307 688l-134 -688h-162l134 688h162zM298 745h-82l-102 137q24 27 71 27q42 0 71 -21z" />
    <glyph glyph-name="Iacute" unicode="&#xcd;" horiz-adv-x="295" 
d="M307 688l-134 -688h-162l134 688h162zM415 882l-153 -137h-91l97 143q34 21 80 21q49 0 67 -27z" />
    <glyph glyph-name="Icircumflex" unicode="&#xce;" horiz-adv-x="295" 
d="M307 688l-134 -688h-162l134 688h162zM386 779l-48 -41l-87 78l-114 -78l-40 41l118 105q20 19 48 19q26 0 41 -19z" />
    <glyph glyph-name="Idieresis" unicode="&#xcf;" horiz-adv-x="295" 
d="M307 688l-134 -688h-162l134 688h162zM222 820q0 -29 -22 -50.5t-53 -21.5q-23 0 -38.5 16.5t-15.5 38.5q0 29 22.5 50.5t52.5 21.5q23 0 38.5 -16.5t15.5 -38.5zM406 820q0 -29 -22 -50.5t-53 -21.5q-23 0 -38.5 16.5t-15.5 38.5q0 29 22.5 50.5t52.5 21.5
q23 0 38.5 -16.5t15.5 -38.5z" />
    <glyph glyph-name="Eth" unicode="&#xd0;" horiz-adv-x="631" 
d="M607 439q0 -55 -10.5 -112t-38.5 -119t-69.5 -109.5t-110 -78.5t-153.5 -31q-121 0 -201 39l54 280h-56l19 97h56l50 255q90 39 209 39q121 0 186 -69.5t65 -190.5zM451 460q0 134 -106 134q-36 0 -55 -8l-36 -181h84l-19 -97h-84l-39 -200q18 -8 53 -8q110 0 163 149
q39 110 39 211z" />
    <glyph glyph-name="Ntilde" unicode="&#xd1;" horiz-adv-x="654" 
d="M667 688l-134 -688h-122l-154 388q-13 35 -22 72h-2q-5 -40 -12 -81l-74 -379h-138l134 688h140l141 -357q15 -41 23 -69h2q4 37 12 78l67 348h139zM580 849q-33 -103 -109 -103q-27 0 -52 20.5t-44 20.5q-31 0 -46 -41l-61 21q32 102 109 102q27 0 52.5 -20.5
t44.5 -20.5q30 0 46 42z" />
    <glyph glyph-name="Ograve" unicode="&#xd2;" horiz-adv-x="627" 
d="M604 451q0 -43 -7.5 -91t-23 -101t-43 -100.5t-64 -86t-90.5 -61t-118 -22.5q-106 0 -159 68t-53 181q0 44 7.5 92t23 101.5t43 100t64 84.5t90 60.5t117.5 22.5q106 0 159.5 -67.5t53.5 -180.5zM447 478q0 112 -75 112q-63 0 -105 -85q-25 -52 -44.5 -140t-19.5 -148
q0 -112 75 -112q71 0 114 102q22 52 38.5 134.5t16.5 136.5zM466 745h-82l-102 137q24 27 71 27q42 0 71 -21z" />
    <glyph glyph-name="Oacute" unicode="&#xd3;" horiz-adv-x="627" 
d="M604 451q0 -43 -7.5 -91t-23 -101t-43 -100.5t-64 -86t-90.5 -61t-118 -22.5q-106 0 -159 68t-53 181q0 44 7.5 92t23 101.5t43 100t64 84.5t90 60.5t117.5 22.5q106 0 159.5 -67.5t53.5 -180.5zM447 478q0 112 -75 112q-63 0 -105 -85q-25 -52 -44.5 -140t-19.5 -148
q0 -112 75 -112q71 0 114 102q22 52 38.5 134.5t16.5 136.5zM578 882l-153 -137h-91l97 143q34 21 80 21q49 0 67 -27z" />
    <glyph glyph-name="Ocircumflex" unicode="&#xd4;" horiz-adv-x="627" 
d="M604 451q0 -43 -7.5 -91t-23 -101t-43 -100.5t-64 -86t-90.5 -61t-118 -22.5q-106 0 -159 68t-53 181q0 44 7.5 92t23 101.5t43 100t64 84.5t90 60.5t117.5 22.5q106 0 159.5 -67.5t53.5 -180.5zM447 478q0 112 -75 112q-63 0 -105 -85q-25 -52 -44.5 -140t-19.5 -148
q0 -112 75 -112q71 0 114 102q22 52 38.5 134.5t16.5 136.5zM551 779l-48 -41l-87 78l-114 -78l-40 41l118 105q20 19 48 19q26 0 41 -19z" />
    <glyph glyph-name="Otilde" unicode="&#xd5;" horiz-adv-x="627" 
d="M604 451q0 -43 -7.5 -91t-23 -101t-43 -100.5t-64 -86t-90.5 -61t-118 -22.5q-106 0 -159 68t-53 181q0 44 7.5 92t23 101.5t43 100t64 84.5t90 60.5t117.5 22.5q106 0 159.5 -67.5t53.5 -180.5zM447 478q0 112 -75 112q-63 0 -105 -85q-25 -52 -44.5 -140t-19.5 -148
q0 -112 75 -112q71 0 114 102q22 52 38.5 134.5t16.5 136.5zM568 849q-33 -103 -109 -103q-27 0 -52 20.5t-44 20.5q-31 0 -46 -41l-61 21q32 102 109 102q27 0 52.5 -20.5t44.5 -20.5q30 0 46 42z" />
    <glyph glyph-name="Odieresis" unicode="&#xd6;" horiz-adv-x="627" 
d="M604 451q0 -43 -7.5 -91t-23 -101t-43 -100.5t-64 -86t-90.5 -61t-118 -22.5q-106 0 -159 68t-53 181q0 44 7.5 92t23 101.5t43 100t64 84.5t90 60.5t117.5 22.5q106 0 159.5 -67.5t53.5 -180.5zM447 478q0 112 -75 112q-63 0 -105 -85q-25 -52 -44.5 -140t-19.5 -148
q0 -112 75 -112q71 0 114 102q22 52 38.5 134.5t16.5 136.5zM387 820q0 -29 -22 -50.5t-53 -21.5q-23 0 -38.5 16.5t-15.5 38.5q0 29 22.5 50.5t52.5 21.5q23 0 38.5 -16.5t15.5 -38.5zM571 820q0 -29 -22 -50.5t-53 -21.5q-23 0 -38.5 16.5t-15.5 38.5q0 29 22.5 50.5
t52.5 21.5q23 0 38.5 -16.5t15.5 -38.5z" />
    <glyph glyph-name="multiply" unicode="&#xd7;" horiz-adv-x="533" 
d="M513 465l-163 -137l110 -137l-83 -70l-111 137l-164 -137l-65 79l165 138l-111 137l84 70l110 -137l163 137z" />
    <glyph glyph-name="Oslash" unicode="&#xd8;" horiz-adv-x="627" 
d="M658 706l-87 -105q33 -61 33 -150q0 -43 -7.5 -91t-23 -101t-43 -100.5t-64 -86t-90.5 -61t-118 -22.5q-92 0 -148 56l-78 -95l-40 32l87 105q-33 61 -33 151q0 44 7.5 92t23 101.5t43 100t64 84.5t90 60.5t117.5 22.5q92 0 148 -56l79 95zM449 534q-16 62 -76 62
q-84 0 -131 -128q-18 -49 -32 -118.5t-15 -121.5zM455 461l-252 -304q17 -58 74 -58q87 0 134 135q39 113 44 227z" />
    <glyph glyph-name="Ugrave" unicode="&#xd9;" horiz-adv-x="614" 
d="M627 688l-94 -485q-20 -103 -95 -159t-185 -56q-92 0 -149 47t-57 129q0 27 6 59l90 465h162l-91 -473q-4 -22 -4 -35q0 -31 19 -49.5t51 -18.5q39 0 66.5 24t35.5 65l94 487h151zM470 745h-82l-102 137q24 27 71 27q42 0 71 -21z" />
    <glyph glyph-name="Uacute" unicode="&#xda;" horiz-adv-x="614" 
d="M627 688l-94 -485q-20 -103 -95 -159t-185 -56q-92 0 -149 47t-57 129q0 27 6 59l90 465h162l-91 -473q-4 -22 -4 -35q0 -31 19 -49.5t51 -18.5q39 0 66.5 24t35.5 65l94 487h151zM573 882l-153 -137h-91l97 143q34 21 80 21q49 0 67 -27z" />
    <glyph glyph-name="Ucircumflex" unicode="&#xdb;" horiz-adv-x="614" 
d="M627 688l-94 -485q-20 -103 -95 -159t-185 -56q-92 0 -149 47t-57 129q0 27 6 59l90 465h162l-91 -473q-4 -22 -4 -35q0 -31 19 -49.5t51 -18.5q39 0 66.5 24t35.5 65l94 487h151zM551 779l-48 -41l-87 78l-114 -78l-40 41l118 105q20 19 48 19q26 0 41 -19z" />
    <glyph glyph-name="Udieresis" unicode="&#xdc;" horiz-adv-x="614" 
d="M627 688l-94 -485q-20 -103 -95 -159t-185 -56q-92 0 -149 47t-57 129q0 27 6 59l90 465h162l-91 -473q-4 -22 -4 -35q0 -31 19 -49.5t51 -18.5q39 0 66.5 24t35.5 65l94 487h151zM388 820q0 -29 -22 -50.5t-53 -21.5q-23 0 -38.5 16.5t-15.5 38.5q0 29 22.5 50.5
t52.5 21.5q23 0 38.5 -16.5t15.5 -38.5zM572 820q0 -29 -22 -50.5t-53 -21.5q-23 0 -38.5 16.5t-15.5 38.5q0 29 22.5 50.5t52.5 21.5q23 0 38.5 -16.5t15.5 -38.5z" />
    <glyph glyph-name="Yacute" unicode="&#xdd;" horiz-adv-x="532" 
d="M609 688l-261 -399l-56 -289h-162l56 289l-106 399h166l48 -260h2l155 260h158zM547 882l-153 -137h-91l97 143q34 21 80 21q49 0 67 -27z" />
    <glyph glyph-name="Thorn" unicode="&#xde;" horiz-adv-x="578" 
d="M558 410q0 -36 -8 -70.5t-29.5 -71t-55.5 -63t-91 -44t-130 -17.5q-28 0 -48 2l-28 -146h-159l134 688h159l-21 -109q19 6 53 6q111 0 167.5 -46.5t56.5 -128.5zM405 415q0 79 -90 79q-32 0 -53 -7l-48 -247q18 -2 44 -2q72 0 107 46q18 23 29 61t11 70z" />
    <glyph glyph-name="germandbls" unicode="&#xdf;" horiz-adv-x="613" 
d="M596 610q0 -62 -33 -130q-52 -5 -79.5 -31.5t-27.5 -61.5q0 -21 15.5 -44.5t33.5 -42t33.5 -49.5t15.5 -66q0 -81 -60.5 -137.5t-162.5 -56.5q-69 0 -115 31l43 96q29 -18 63 -18q38 0 58 22.5t20 51.5q0 22 -14.5 45t-31.5 40.5t-31.5 47t-14.5 62.5q0 53 32 93t88 60
q15 45 15 92q0 77 -59 77q-90 0 -124 -172l-100 -519h-155l98 507q26 135 101 212t195 77q93 0 145 -53.5t52 -132.5z" />
    <glyph glyph-name="agrave" unicode="&#xe0;" horiz-adv-x="542" 
d="M500 401q0 -26 -4 -47l-63 -325q-83 -40 -214 -40q-99 0 -154 37t-55 108q0 85 72 139q81 61 268 79l5 25q2 10 2 20q0 54 -80 54q-72 0 -151 -34l-16 92q92 41 205 41q88 0 136.5 -37t48.5 -112zM336 279q-104 -10 -148 -57q-31 -33 -31 -76q0 -70 84 -70q33 0 58 11z
M404 596h-82l-102 137q24 27 71 27q42 0 71 -21z" />
    <glyph glyph-name="aacute" unicode="&#xe1;" horiz-adv-x="542" 
d="M500 401q0 -26 -4 -47l-63 -325q-83 -40 -214 -40q-99 0 -154 37t-55 108q0 85 72 139q81 61 268 79l5 25q2 10 2 20q0 54 -80 54q-72 0 -151 -34l-16 92q92 41 205 41q88 0 136.5 -37t48.5 -112zM336 279q-104 -10 -148 -57q-31 -33 -31 -76q0 -70 84 -70q33 0 58 11z
M526 733l-153 -137h-91l97 143q34 21 80 21q49 0 67 -27z" />
    <glyph glyph-name="acircumflex" unicode="&#xe2;" horiz-adv-x="542" 
d="M500 401q0 -26 -4 -47l-63 -325q-83 -40 -214 -40q-99 0 -154 37t-55 108q0 85 72 139q81 61 268 79l5 25q2 10 2 20q0 54 -80 54q-72 0 -151 -34l-16 92q92 41 205 41q88 0 136.5 -37t48.5 -112zM336 279q-104 -10 -148 -57q-31 -33 -31 -76q0 -70 84 -70q33 0 58 11z
M483 630l-48 -41l-87 78l-114 -78l-40 41l118 105q20 19 48 19q26 0 41 -19z" />
    <glyph glyph-name="atilde" unicode="&#xe3;" horiz-adv-x="542" 
d="M500 401q0 -26 -4 -47l-63 -325q-83 -40 -214 -40q-99 0 -154 37t-55 108q0 85 72 139q81 61 268 79l5 25q2 10 2 20q0 54 -80 54q-72 0 -151 -34l-16 92q92 41 205 41q88 0 136.5 -37t48.5 -112zM336 279q-104 -10 -148 -57q-31 -33 -31 -76q0 -70 84 -70q33 0 58 11z
M501 700q-33 -103 -109 -103q-27 0 -52 20.5t-44 20.5q-31 0 -46 -41l-61 21q32 102 109 102q27 0 52.5 -20.5t44.5 -20.5q30 0 46 42z" />
    <glyph glyph-name="adieresis" unicode="&#xe4;" horiz-adv-x="542" 
d="M500 401q0 -26 -4 -47l-63 -325q-83 -40 -214 -40q-99 0 -154 37t-55 108q0 85 72 139q81 61 268 79l5 25q2 10 2 20q0 54 -80 54q-72 0 -151 -34l-16 92q92 41 205 41q88 0 136.5 -37t48.5 -112zM336 279q-104 -10 -148 -57q-31 -33 -31 -76q0 -70 84 -70q33 0 58 11z
M325 671q0 -29 -22 -50.5t-53 -21.5q-23 0 -38.5 16.5t-15.5 38.5q0 29 22.5 50.5t52.5 21.5q23 0 38.5 -16.5t15.5 -38.5zM509 671q0 -29 -22 -50.5t-53 -21.5q-23 0 -38.5 16.5t-15.5 38.5q0 29 22.5 50.5t52.5 21.5q23 0 38.5 -16.5t15.5 -38.5z" />
    <glyph glyph-name="aring" unicode="&#xe5;" horiz-adv-x="542" 
d="M500 401q0 -26 -4 -47l-63 -325q-83 -40 -214 -40q-99 0 -154 37t-55 108q0 85 72 139q81 61 268 79l5 25q2 10 2 20q0 54 -80 54q-72 0 -151 -34l-16 92q92 41 205 41q88 0 136.5 -37t48.5 -112zM336 279q-104 -10 -148 -57q-31 -33 -31 -76q0 -70 84 -70q33 0 58 11z
M446 696q0 -42 -31.5 -72.5t-73.5 -30.5q-33 0 -55 22.5t-22 53.5q0 42 31.5 72.5t73.5 30.5q33 0 55 -22t22 -54zM395 691q0 14 -9 23t-23 9q-19 0 -33.5 -15t-14.5 -34q0 -14 9 -23t23 -9q19 0 33.5 15t14.5 34z" />
    <glyph glyph-name="ae" unicode="&#xe6;" horiz-adv-x="834" 
d="M802 363q0 -48 -13 -101l-329 -45v-14q0 -105 112 -105q73 0 139 31l16 -100q-80 -40 -185 -40q-117 0 -166 79q-64 -79 -186 -79q-81 0 -130.5 37t-49.5 106q0 77 63 131q81 69 273 88l5 23q2 14 2 23q0 54 -77 54q-71 0 -151 -35l-16 93q95 41 202 41q51 0 87.5 -18.5
t48.5 -53.5q30 32 76.5 52t93.5 20q89 0 137 -49t48 -138zM662 378q0 81 -68 81q-47 0 -82 -43t-48 -123l193 29q5 26 5 56zM332 279q-120 -13 -159 -68q-21 -30 -21 -69q0 -31 17 -48.5t47 -17.5q34 0 59.5 23.5t32.5 58.5z" />
    <glyph glyph-name="ccedilla" unicode="&#xe7;" horiz-adv-x="432" 
d="M450 511l-49 -84q-25 19 -65 19q-68 0 -109 -81q-37 -71 -37 -153q0 -52 20.5 -81.5t57.5 -29.5q38 0 70 21l18 -94q-57 -39 -143 -39q-83 0 -132.5 57t-49.5 152q0 88 32.5 167t99.5 132t154 53q83 0 133 -39zM266 -114q0 -99 -202 -99q-42 0 -84 5l35 52q24 -3 52 -3
q94 0 94 39q0 23 -55 23q-28 0 -54 -3l31 47q30 3 68 3q115 0 115 -64z" />
    <glyph glyph-name="egrave" unicode="&#xe8;" horiz-adv-x="558" 
d="M525 358q0 -44 -12 -96l-333 -46v-12q0 -51 29 -78.5t83 -27.5q72 0 141 31l17 -100q-83 -40 -198 -40q-106 0 -162.5 58t-56.5 163q0 44 10 89.5t33.5 91t57 80.5t85.5 57t115 22q92 0 141.5 -51t49.5 -141zM382 378q0 81 -68 81q-50 0 -84 -45.5t-46 -121.5l193 30
q5 26 5 56zM405 596h-82l-102 137q24 27 71 27q42 0 71 -21z" />
    <glyph glyph-name="eacute" unicode="&#xe9;" horiz-adv-x="558" 
d="M525 358q0 -44 -12 -96l-333 -46v-12q0 -51 29 -78.5t83 -27.5q72 0 141 31l17 -100q-83 -40 -198 -40q-106 0 -162.5 58t-56.5 163q0 44 10 89.5t33.5 91t57 80.5t85.5 57t115 22q92 0 141.5 -51t49.5 -141zM382 378q0 81 -68 81q-50 0 -84 -45.5t-46 -121.5l193 30
q5 26 5 56zM532 733l-153 -137h-91l97 143q34 21 80 21q49 0 67 -27z" />
    <glyph glyph-name="ecircumflex" unicode="&#xea;" horiz-adv-x="558" 
d="M525 358q0 -44 -12 -96l-333 -46v-12q0 -51 29 -78.5t83 -27.5q72 0 141 31l17 -100q-83 -40 -198 -40q-106 0 -162.5 58t-56.5 163q0 44 10 89.5t33.5 91t57 80.5t85.5 57t115 22q92 0 141.5 -51t49.5 -141zM382 378q0 81 -68 81q-50 0 -84 -45.5t-46 -121.5l193 30
q5 26 5 56zM495 630l-48 -41l-87 78l-114 -78l-40 41l118 105q20 19 48 19q26 0 41 -19z" />
    <glyph glyph-name="edieresis" unicode="&#xeb;" horiz-adv-x="558" 
d="M525 358q0 -44 -12 -96l-333 -46v-12q0 -51 29 -78.5t83 -27.5q72 0 141 31l17 -100q-83 -40 -198 -40q-106 0 -162.5 58t-56.5 163q0 44 10 89.5t33.5 91t57 80.5t85.5 57t115 22q92 0 141.5 -51t49.5 -141zM382 378q0 81 -68 81q-50 0 -84 -45.5t-46 -121.5l193 30
q5 26 5 56zM329 671q0 -29 -22 -50.5t-53 -21.5q-23 0 -38.5 16.5t-15.5 38.5q0 29 22.5 50.5t52.5 21.5q23 0 38.5 -16.5t15.5 -38.5zM513 671q0 -29 -22 -50.5t-53 -21.5q-23 0 -38.5 16.5t-15.5 38.5q0 29 22.5 50.5t52.5 21.5q23 0 38.5 -16.5t15.5 -38.5z" />
    <glyph glyph-name="igrave" unicode="&#xec;" 
d="M267 539l-105 -539h-156l105 539h156zM268 596h-82l-102 137q24 27 71 27q42 0 71 -21z" />
    <glyph glyph-name="iacute" unicode="&#xed;" 
d="M267 539l-105 -539h-156l105 539h156zM373 733l-153 -137h-91l97 143q34 21 80 21q49 0 67 -27z" />
    <glyph glyph-name="icircumflex" unicode="&#xee;" 
d="M267 539l-105 -539h-156l105 539h156zM348 630l-48 -41l-87 78l-114 -78l-40 41l118 105q20 19 48 19q26 0 41 -19z" />
    <glyph glyph-name="idieresis" unicode="&#xef;" 
d="M267 539l-105 -539h-156l105 539h156zM186 671q0 -29 -22 -50.5t-53 -21.5q-23 0 -38.5 16.5t-15.5 38.5q0 29 22.5 50.5t52.5 21.5q23 0 38.5 -16.5t15.5 -38.5zM370 671q0 -29 -22 -50.5t-53 -21.5q-23 0 -38.5 16.5t-15.5 38.5q0 29 22.5 50.5t52.5 21.5
q23 0 38.5 -16.5t15.5 -38.5z" />
    <glyph glyph-name="eth" unicode="&#xf0;" horiz-adv-x="566" 
d="M533 379q0 -54 -9.5 -106t-32 -104t-56.5 -91.5t-87.5 -64t-120.5 -24.5q-96 0 -147 53t-51 145q0 142 82 241.5t208 99.5q18 0 38 -5q-16 45 -44 87l-112 -52l-36 61l100 51l-54 60l111 70l63 -69l104 53l43 -72l-95 -45q96 -134 96 -288zM380 383q0 19 -4 55
q-18 6 -42 6q-48 0 -86 -46q-30 -37 -48.5 -99t-18.5 -114q0 -95 64 -95q47 0 80 57q25 44 40 113.5t15 122.5z" />
    <glyph glyph-name="ntilde" unicode="&#xf1;" horiz-adv-x="579" 
d="M537 401q0 -26 -4 -49l-68 -352h-156l69 360q4 22 4 33q0 60 -72 60q-34 0 -65 -11l-85 -442h-156l98 510q100 39 226 39q105 0 157 -39.5t52 -108.5zM513 700q-33 -103 -109 -103q-27 0 -52 20.5t-44 20.5q-31 0 -46 -41l-61 21q32 102 109 102q27 0 52.5 -20.5
t44.5 -20.5q30 0 46 42z" />
    <glyph glyph-name="ograve" unicode="&#xf2;" horiz-adv-x="566" 
d="M529 341q0 -43 -9.5 -88.5t-32 -93.5t-56 -85t-86 -61t-117.5 -24q-96 0 -146.5 57.5t-50.5 151.5q0 58 16.5 116.5t50.5 113t94.5 88.5t139.5 34q96 0 146.5 -57t50.5 -152zM378 359q0 95 -62 95q-58 0 -94 -83q-16 -38 -27.5 -93t-11.5 -93q0 -95 62 -95q59 0 95 86
q16 37 27 91t11 92zM404 596h-82l-102 137q24 27 71 27q42 0 71 -21z" />
    <glyph glyph-name="oacute" unicode="&#xf3;" horiz-adv-x="566" 
d="M529 341q0 -43 -9.5 -88.5t-32 -93.5t-56 -85t-86 -61t-117.5 -24q-96 0 -146.5 57.5t-50.5 151.5q0 58 16.5 116.5t50.5 113t94.5 88.5t139.5 34q96 0 146.5 -57t50.5 -152zM378 359q0 95 -62 95q-58 0 -94 -83q-16 -38 -27.5 -93t-11.5 -93q0 -95 62 -95q59 0 95 86
q16 37 27 91t11 92zM528 733l-153 -137h-91l97 143q34 21 80 21q49 0 67 -27z" />
    <glyph glyph-name="ocircumflex" unicode="&#xf4;" horiz-adv-x="566" 
d="M529 341q0 -43 -9.5 -88.5t-32 -93.5t-56 -85t-86 -61t-117.5 -24q-96 0 -146.5 57.5t-50.5 151.5q0 58 16.5 116.5t50.5 113t94.5 88.5t139.5 34q96 0 146.5 -57t50.5 -152zM378 359q0 95 -62 95q-58 0 -94 -83q-16 -38 -27.5 -93t-11.5 -93q0 -95 62 -95q59 0 95 86
q16 37 27 91t11 92zM493 630l-48 -41l-87 78l-114 -78l-40 41l118 105q20 19 48 19q26 0 41 -19z" />
    <glyph glyph-name="otilde" unicode="&#xf5;" horiz-adv-x="566" 
d="M529 341q0 -43 -9.5 -88.5t-32 -93.5t-56 -85t-86 -61t-117.5 -24q-96 0 -146.5 57.5t-50.5 151.5q0 58 16.5 116.5t50.5 113t94.5 88.5t139.5 34q96 0 146.5 -57t50.5 -152zM378 359q0 95 -62 95q-58 0 -94 -83q-16 -38 -27.5 -93t-11.5 -93q0 -95 62 -95q59 0 95 86
q16 37 27 91t11 92zM509 700q-33 -103 -109 -103q-27 0 -52 20.5t-44 20.5q-31 0 -46 -41l-61 21q32 102 109 102q27 0 52.5 -20.5t44.5 -20.5q30 0 46 42z" />
    <glyph glyph-name="odieresis" unicode="&#xf6;" horiz-adv-x="566" 
d="M529 341q0 -43 -9.5 -88.5t-32 -93.5t-56 -85t-86 -61t-117.5 -24q-96 0 -146.5 57.5t-50.5 151.5q0 58 16.5 116.5t50.5 113t94.5 88.5t139.5 34q96 0 146.5 -57t50.5 -152zM378 359q0 95 -62 95q-58 0 -94 -83q-16 -38 -27.5 -93t-11.5 -93q0 -95 62 -95q59 0 95 86
q16 37 27 91t11 92zM328 671q0 -29 -22 -50.5t-53 -21.5q-23 0 -38.5 16.5t-15.5 38.5q0 29 22.5 50.5t52.5 21.5q23 0 38.5 -16.5t15.5 -38.5zM512 671q0 -29 -22 -50.5t-53 -21.5q-23 0 -38.5 16.5t-15.5 38.5q0 29 22.5 50.5t52.5 21.5q23 0 38.5 -16.5t15.5 -38.5z" />
    <glyph glyph-name="divide" unicode="&#xf7;" horiz-adv-x="533" 
d="M371 507q0 -33 -24.5 -57t-58.5 -24q-25 0 -42.5 17.5t-17.5 42.5q0 33 25 57t58 24q25 0 42.5 -17.5t17.5 -42.5zM487 366l-16 -82h-425l16 82h425zM305 165q0 -33 -24.5 -57t-58.5 -24q-25 0 -42.5 17.5t-17.5 42.5q0 33 25 57t58 24q25 0 42.5 -17.5t17.5 -42.5z" />
    <glyph glyph-name="oslash" unicode="&#xf8;" horiz-adv-x="566" 
d="M564 557l-71 -82q36 -53 36 -134q0 -43 -9.5 -88.5t-32 -93.5t-56 -85t-86 -61t-117.5 -24q-78 0 -128 39l-67 -77l-37 31l72 82q-37 54 -37 134q0 58 16.5 116.5t50.5 113t94.5 88.5t139.5 34q80 0 128 -39l68 77zM378 418q-16 43 -61 43q-65 0 -102 -86
q-38 -87 -40 -189zM386 354l-202 -230q16 -41 60 -41q65 0 103 91q36 85 39 180z" />
    <glyph glyph-name="ugrave" unicode="&#xf9;" horiz-adv-x="572" 
d="M562 539l-99 -509q-88 -41 -225 -41q-98 0 -150 39.5t-52 113.5q0 24 5 52l67 345h156l-69 -353q-3 -15 -3 -33q0 -60 67 -60q33 0 62 12l85 434h156zM413 596h-82l-102 137q24 27 71 27q42 0 71 -21z" />
    <glyph glyph-name="uacute" unicode="&#xfa;" horiz-adv-x="572" 
d="M562 539l-99 -509q-88 -41 -225 -41q-98 0 -150 39.5t-52 113.5q0 24 5 52l67 345h156l-69 -353q-3 -15 -3 -33q0 -60 67 -60q33 0 62 12l85 434h156zM532 733l-153 -137h-91l97 143q34 21 80 21q49 0 67 -27z" />
    <glyph glyph-name="ucircumflex" unicode="&#xfb;" horiz-adv-x="572" 
d="M562 539l-99 -509q-88 -41 -225 -41q-98 0 -150 39.5t-52 113.5q0 24 5 52l67 345h156l-69 -353q-3 -15 -3 -33q0 -60 67 -60q33 0 62 12l85 434h156zM495 630l-48 -41l-87 78l-114 -78l-40 41l118 105q20 19 48 19q26 0 41 -19z" />
    <glyph glyph-name="udieresis" unicode="&#xfc;" horiz-adv-x="572" 
d="M562 539l-99 -509q-88 -41 -225 -41q-98 0 -150 39.5t-52 113.5q0 24 5 52l67 345h156l-69 -353q-3 -15 -3 -33q0 -60 67 -60q33 0 62 12l85 434h156zM331 671q0 -29 -22 -50.5t-53 -21.5q-23 0 -38.5 16.5t-15.5 38.5q0 29 22.5 50.5t52.5 21.5q23 0 38.5 -16.5
t15.5 -38.5zM515 671q0 -29 -22 -50.5t-53 -21.5q-23 0 -38.5 16.5t-15.5 38.5q0 29 22.5 50.5t52.5 21.5q23 0 38.5 -16.5t15.5 -38.5z" />
    <glyph glyph-name="yacute" unicode="&#xfd;" horiz-adv-x="533" 
d="M569 539l-393 -754h-168l131 215l-75 539h164l13 -322v-14q0 -31 -4 -69h2q18 53 31 83l145 322h154zM517 733l-153 -137h-91l97 143q34 21 80 21q49 0 67 -27z" />
    <glyph glyph-name="thorn" unicode="&#xfe;" horiz-adv-x="571" 
d="M537 351q0 -61 -19 -122.5t-54.5 -115t-95.5 -87t-133 -33.5q-45 0 -75 10l-42 -218h-156l194 1000h156l-50 -257q46 19 96 19q85 0 132 -54t47 -142zM384 354q0 103 -79 103q-27 0 -59 -13l-68 -349q17 -8 44 -8q74 0 115 75q20 36 33.5 92t13.5 100z" />
    <glyph glyph-name="ydieresis" unicode="&#xff;" horiz-adv-x="533" 
d="M569 539l-393 -754h-168l131 215l-75 539h164l13 -322v-14q0 -31 -4 -69h2q18 53 31 83l145 322h154zM323 671q0 -29 -22 -50.5t-53 -21.5q-23 0 -38.5 16.5t-15.5 38.5q0 29 22.5 50.5t52.5 21.5q23 0 38.5 -16.5t15.5 -38.5zM507 671q0 -29 -22 -50.5t-53 -21.5
q-23 0 -38.5 16.5t-15.5 38.5q0 29 22.5 50.5t52.5 21.5q23 0 38.5 -16.5t15.5 -38.5z" />
    <glyph glyph-name="OE" unicode="&#x152;" horiz-adv-x="769" 
d="M805 688l-22 -109h-188l-34 -175h166l-20 -106h-166l-37 -189h188l-21 -109h-315q-33 -11 -85 -11q-111 0 -168 67t-57 184q0 32 4 68.5t15 82t27.5 87.5t45 83t65 71t89 48.5t115.5 18.5q50 0 83 -11h315zM446 587q-22 8 -49 8q-94 0 -145 -128q-19 -50 -32.5 -117
t-13.5 -118q0 -132 95 -132q27 0 51 8z" />
    <glyph glyph-name="oe" unicode="&#x153;" horiz-adv-x="859" 
d="M826 360q0 -47 -12 -98l-328 -45v-13q0 -50 27.5 -78t83.5 -28q74 0 140 31l16 -100q-85 -40 -185 -40q-128 0 -171 92q-70 -92 -180 -92q-88 0 -137.5 54.5t-49.5 148.5q0 60 16.5 119.5t49 114.5t91 89.5t133.5 34.5q52 0 89 -24t54 -65q77 89 181 89q88 0 135 -50.5
t47 -139.5zM688 378q0 81 -68 81q-50 0 -84 -45t-46 -121l193 29q5 26 5 56zM371 359q0 95 -62 95q-60 0 -96 -89q-37 -93 -37 -180q0 -95 62 -95q61 0 97 90t36 179z" />
    <glyph glyph-name="Ydieresis" unicode="&#x178;" horiz-adv-x="532" 
d="M609 688l-261 -399l-56 -289h-162l56 289l-106 399h166l48 -260h2l155 260h158zM349 820q0 -29 -22 -50.5t-53 -21.5q-23 0 -38.5 16.5t-15.5 38.5q0 29 22.5 50.5t52.5 21.5q23 0 38.5 -16.5t15.5 -38.5zM533 820q0 -29 -22 -50.5t-53 -21.5q-23 0 -38.5 16.5
t-15.5 38.5q0 29 22.5 50.5t52.5 21.5q23 0 38.5 -16.5t15.5 -38.5z" />
    <glyph glyph-name="circumflex" unicode="&#x2c6;" 
d="M351 630l-48 -41l-87 78l-114 -78l-40 41l118 105q20 19 48 19q26 0 41 -19z" />
    <glyph glyph-name="tilde" unicode="&#x2dc;" 
d="M368 700q-33 -103 -109 -103q-27 0 -52 20.5t-44 20.5q-31 0 -46 -41l-61 21q32 102 109 102q27 0 52.5 -20.5t44.5 -20.5q30 0 46 42z" />
    <glyph glyph-name="uni2000" unicode="&#x2000;" horiz-adv-x="460" 
 />
    <glyph glyph-name="uni2001" unicode="&#x2001;" horiz-adv-x="921" 
 />
    <glyph glyph-name="uni2002" unicode="&#x2002;" horiz-adv-x="460" 
 />
    <glyph glyph-name="uni2003" unicode="&#x2003;" horiz-adv-x="921" 
 />
    <glyph glyph-name="uni2004" unicode="&#x2004;" horiz-adv-x="307" 
 />
    <glyph glyph-name="uni2005" unicode="&#x2005;" horiz-adv-x="230" 
 />
    <glyph glyph-name="uni2006" unicode="&#x2006;" horiz-adv-x="153" 
 />
    <glyph glyph-name="uni2007" unicode="&#x2007;" horiz-adv-x="153" 
 />
    <glyph glyph-name="uni2008" unicode="&#x2008;" horiz-adv-x="115" 
 />
    <glyph glyph-name="uni2009" unicode="&#x2009;" horiz-adv-x="184" 
 />
    <glyph glyph-name="uni200A" unicode="&#x200a;" horiz-adv-x="51" 
 />
    <glyph glyph-name="uni2010" unicode="&#x2010;" horiz-adv-x="356" 
d="M327 382l-22 -114h-261l22 114h261z" />
    <glyph glyph-name="uni2011" unicode="&#x2011;" horiz-adv-x="356" 
d="M327 382l-22 -114h-261l22 114h261z" />
    <glyph glyph-name="endash" unicode="&#x2013;" horiz-adv-x="408" 
d="M426 380l-21 -110h-408l21 110h408z" />
    <glyph glyph-name="emdash" unicode="&#x2014;" horiz-adv-x="816" 
d="M834 378l-21 -106h-816l21 106h816z" />
    <glyph glyph-name="quoteleft" unicode="&#x2018;" horiz-adv-x="305" 
d="M365 785l-136 -266q-14 -21 -40 -34t-51 -13q-51 0 -54 47l193 266h88z" />
    <glyph glyph-name="quoteright" unicode="&#x2019;" horiz-adv-x="305" 
d="M356 746l-194 -266h-88l136 266q14 21 40 34t51 13q23 0 38.5 -12t16.5 -35z" />
    <glyph glyph-name="quotesinglbase" unicode="&#x201a;" horiz-adv-x="305" 
d="M234 121l-193 -266h-88l136 266q14 21 39.5 34t50.5 13q23 0 38.5 -12t16.5 -35z" />
    <glyph glyph-name="quotedblleft" unicode="&#x201c;" horiz-adv-x="521" 
d="M581 785l-136 -266q-14 -21 -40 -34t-51 -13q-51 0 -54 47l193 266h88zM365 785l-136 -266q-14 -21 -40 -34t-51 -13q-51 0 -54 47l193 266h88z" />
    <glyph glyph-name="quotedblright" unicode="&#x201d;" horiz-adv-x="521" 
d="M572 746l-194 -266h-88l136 266q14 21 40 34t51 13q23 0 38.5 -12t16.5 -35zM356 746l-194 -266h-88l136 266q14 21 40 34t51 13q23 0 38.5 -12t16.5 -35z" />
    <glyph glyph-name="quotedblbase" unicode="&#x201e;" horiz-adv-x="521" 
d="M450 121l-193 -266h-88l136 266q14 21 39.5 34t50.5 13q23 0 38.5 -12t16.5 -35zM234 121l-193 -266h-88l136 266q14 21 39.5 34t50.5 13q23 0 38.5 -12t16.5 -35z" />
    <glyph glyph-name="bullet" unicode="&#x2022;" horiz-adv-x="392" 
d="M354 379q0 -70 -49.5 -114t-112.5 -44q-52 0 -87.5 32.5t-35.5 92.5q0 71 49 115t112 44q52 0 88 -33t36 -93z" />
    <glyph glyph-name="ellipsis" unicode="&#x2026;" horiz-adv-x="845" 
d="M754 93q0 -41 -31.5 -71.5t-73.5 -30.5q-32 0 -53.5 22.5t-21.5 53.5q0 41 31.5 71t73.5 30q32 0 53.5 -22t21.5 -53zM473 93q0 -41 -31.5 -71.5t-73.5 -30.5q-32 0 -54 22.5t-22 53.5q0 41 31.5 71t73.5 30q32 0 54 -22t22 -53zM191 93q0 -41 -31.5 -71.5t-73.5 -30.5
q-32 0 -53.5 22.5t-21.5 53.5q0 41 31.5 71t73.5 30q32 0 53.5 -22t21.5 -53z" />
    <glyph glyph-name="uni202F" unicode="&#x202f;" horiz-adv-x="184" 
 />
    <glyph glyph-name="guilsinglleft" unicode="&#x2039;" horiz-adv-x="308" 
d="M308 522l-147 -191l73 -190l-93 -44l-93 244l179 232z" />
    <glyph glyph-name="guilsinglright" unicode="&#x203a;" horiz-adv-x="308" 
d="M280 329l-179 -232l-81 51l147 191l-73 190l93 44z" />
    <glyph glyph-name="uni205F" unicode="&#x205f;" horiz-adv-x="230" 
 />
    <glyph glyph-name="Euro" unicode="&#x20ac;" horiz-adv-x="654" 
d="M684 660l-51 -94q-37 22 -91 22q-118 0 -184 -130h211l-13 -65h-224q-12 -39 -17 -87h225l-13 -65h-212q6 -61 38.5 -97t95.5 -36q52 0 96 22l17 -101q-66 -41 -164 -41q-119 0 -180.5 69.5t-64.5 183.5h-107l13 65h96q5 46 16 87h-96l13 65h105q44 108 129 175t207 67
q97 0 155 -40z" />
    <glyph glyph-name="trademark" unicode="&#x2122;" horiz-adv-x="804" 
d="M770 688l-33 -400h-93l26 224q0 1 2.5 20.5t3.5 26.5h-2q-9 -25 -20 -47l-114 -224h-52l-24 224q-3 33 -3 47h-2q-4 -19 -11 -47l-65 -224h-90l123 400h101l22 -216q2 -18 2 -50h2q9 26 20 50l107 216h100zM352 688l-14 -70h-82l-64 -330h-103l65 330h-83l14 70h267z" />
    </font>
</defs>
</svg>
